<?xml version="1.0" encoding="utf-8"?>
<!-- Generator: Adobe Illustrator 26.4.1, SVG Export Plug-In . SVG Version: 6.00 Build 0)  -->
<svg version="1.1" id="Layer_1" xmlns="http://www.w3.org/2000/svg" xmlns:xlink="http://www.w3.org/1999/xlink" x="0px" y="0px"
	 viewBox="0 0 955.24 368.02" style="enable-background:new 0 0 955.24 368.02;" xml:space="preserve">
<style type="text/css">
	.st0{fill:#800000;}
	.st1{fill:none;stroke:#FFFFFF;stroke-width:20;stroke-linecap:square;stroke-linejoin:round;stroke-miterlimit:10;}
	.st2{fill:none;stroke:#800000;stroke-width:20;stroke-linecap:square;stroke-linejoin:round;stroke-miterlimit:10;}
	.st3{fill:none;stroke:#FFFFFF;stroke-width:21;stroke-linecap:square;stroke-linejoin:round;stroke-miterlimit:10;}
</style>
<g>
	<circle class="st0" cx="184.01" cy="184.01" r="173.51"/>
	<g>
		<g>
			<polyline class="st1" points="22.12,240.63 30.58,249.49 33.23,251.84 35.48,253.53 37.47,254.74 39.3,255.58 41.01,256.11 
				42.64,256.37 44.23,256.38 45.8,256.16 47.38,255.7 49,254.97 50.69,253.95 52.49,252.58 54.43,250.8 56.56,248.51 59,245.53 
				61.99,241.48 67.63,233.34 71.34,228.23 73.91,225.07 76.05,222.81 77.92,221.16 79.6,219.98 81.15,219.18 82.59,218.69 
				83.97,218.47 85.3,218.5 86.62,218.76 87.96,219.27 89.33,220.05 90.77,221.15 92.29,222.62 93.93,224.54 95.7,226.99 
				97.65,230.1 99.84,234.07 102.41,239.25 105.82,246.68 113.19,262.86 115.66,267.63 117.69,271.05 119.43,273.55 120.97,275.36 
				122.34,276.62 123.59,277.45 124.72,277.94 125.79,278.15 126.82,278.1 127.83,277.82 128.86,277.29 129.92,276.46 
				131.05,275.28 132.25,273.67 133.54,271.53 134.92,268.76 136.4,265.23 138,260.79 139.73,255.28 141.61,248.48 143.66,240.13 
				145.93,229.85 148.5,217.08 151.55,200.7 155.69,177.02 163.65,131.34 166.69,115.43 169.19,103.55 171.36,94.34 173.29,87.16 
				175.02,81.57 176.58,77.29 178,74.09 179.28,71.74 180.44,70.08 181.49,68.98 182.44,68.3 183.32,67.96 184.16,67.88 
				184.99,68.04 185.83,68.45 186.74,69.16 187.71,70.24 188.78,71.79 189.95,73.92 191.23,76.78 192.65,80.52 194.2,85.34 
				195.92,91.45 197.84,99.16 199.99,108.85 202.46,121.14 205.45,137.23 209.63,161.21 217.2,204.69 220.38,221.44 223.03,234.17 
				225.35,244.25 227.45,252.32 229.37,258.79 231.13,263.93 232.76,267.98 234.27,271.12 235.67,273.51 236.97,275.27 
				238.17,276.53 239.3,277.37 240.38,277.89 241.41,278.13 242.43,278.13 243.48,277.88 244.57,277.38 245.74,276.57 
				247.02,275.39 248.43,273.76 250.01,271.56 251.8,268.63 253.9,264.73 256.5,259.38 260.44,250.64 265.76,238.94 268.54,233.4 
				270.85,229.31 272.88,226.18 274.72,223.77 276.4,221.94 277.97,220.58 279.44,219.6 280.83,218.95 282.18,218.58 283.51,218.45 
				284.85,218.57 286.22,218.92 287.65,219.54 289.18,220.47 290.83,221.76 292.66,223.49 294.73,225.79 297.18,228.88 
				300.4,233.34 309.1,245.63 311.71,248.79 313.96,251.15 315.97,252.94 317.82,254.27 319.56,255.24 321.22,255.89 322.82,256.27 
				324.39,256.41 325.98,256.3 327.6,255.96 329.28,255.35 331.07,254.46 333.01,253.21 335.16,251.54 337.65,249.29 340.8,246.11 
				345.9,240.63 			"/>
		</g>
	</g>
	<circle class="st2" cx="184.01" cy="184.01" r="173.51"/>
	<circle class="st3" cx="184.01" cy="184.01" r="173.51"/>
</g>
<g>
	<path class="st0" d="M504.89,223.2c0,9.11-1.96,17.26-5.88,24.46c-3.92,7.2-9.21,13.34-15.88,18.42c-6.67,5.08-14.51,9-23.5,11.75
		c-9,2.75-18.69,4.13-29.06,4.13c-10.16,0-20.59-1.06-31.28-3.18c-10.69-2.11-20.49-5.29-29.38-9.53l5.72-23.19
		c7.83,3.6,16.46,6.57,25.88,8.89c9.42,2.33,18.9,3.49,28.43,3.49c13.76,0,24.88-2.91,33.35-8.73c8.47-5.82,12.7-14.24,12.7-25.25
		c0-6.14-1.22-11.38-3.65-15.72c-2.44-4.34-5.77-8.26-10-11.75c-4.24-3.49-9.16-6.61-14.77-9.37c-5.61-2.75-11.59-5.61-17.94-8.58
		c-7.2-3.38-14.13-6.93-20.8-10.64c-6.67-3.7-12.55-7.94-17.63-12.7c-5.08-4.76-9.16-10.16-12.23-16.2
		c-3.07-6.03-4.61-13.07-4.61-21.12c0-9.1,1.64-17.15,4.92-24.14c3.28-6.99,7.88-12.81,13.82-17.47
		c5.92-4.65,13.02-8.15,21.28-10.48c8.26-2.33,17.36-3.49,27.31-3.49c10.16,0,20.06,1.17,29.7,3.49c9.63,2.33,18.05,5.4,25.25,9.21
		l-5.4,23.19c-6.78-3.6-14.51-6.56-23.18-8.89c-8.68-2.33-17.47-3.49-26.36-3.49c-25.62,0-38.43,9.96-38.43,29.85
		c0,4.45,0.64,8.31,1.91,11.59c1.27,3.29,3.33,6.35,6.19,9.21s6.67,5.61,11.43,8.26c4.76,2.65,10.53,5.67,17.31,9.05
		c6.77,3.39,13.97,7.04,21.6,10.96c7.62,3.92,14.61,8.58,20.96,13.97s11.64,11.7,15.88,18.9
		C502.77,205.31,504.89,213.67,504.89,223.2z"/>
	<path class="st0" d="M572.86,278.15h-29.22V66.62h29.22V278.15z"/>
	<path class="st0" d="M623.67,278.15V125.7h27.31v22.23c5.72-8.04,12.59-14.29,20.64-18.74c8.04-4.45,17.36-6.67,27.95-6.67
		c9.53,0,17.68,2.01,24.46,6.03c6.77,4.02,12.39,9.48,16.83,16.36c4.45,6.88,7.67,14.88,9.69,23.98c2.01,9.11,3.02,18.74,3.02,28.9
		v80.35h-28.58v-79.4c0-7.83-0.63-14.98-1.91-21.44c-1.27-6.46-3.29-12.01-6.04-16.67c-2.75-4.65-6.35-8.31-10.8-10.96
		c-4.45-2.64-9.85-3.97-16.2-3.97c-8.47,0-15.93,2.22-22.39,6.67c-6.46,4.45-11.59,9.11-15.4,13.97v111.8H623.67z"/>
	<path class="st0" d="M899.34,62.81c9.53,0,19.48,0.9,29.85,2.7c10.37,1.8,19.06,4.18,26.04,7.15l-4.76,22.55
		c-7.2-2.54-14.93-4.61-23.18-6.19c-8.26-1.59-16.41-2.38-24.46-2.38c-26.47,0-47.11,7.41-61.93,22.23
		c-14.82,14.82-22.23,36-22.23,63.52c0,27.53,7.41,48.7,22.23,63.52c14.82,14.82,35.46,22.23,61.93,22.23
		c8.04,0,16.2-0.79,24.46-2.38c8.26-1.59,15.98-3.65,23.18-6.19l4.76,22.55c-6.99,2.97-15.67,5.35-26.04,7.15
		c-10.38,1.8-20.33,2.7-29.85,2.7c-17.36,0-32.87-2.75-46.53-8.26c-13.66-5.5-25.15-13.13-34.46-22.87
		c-9.32-9.74-16.47-21.28-21.44-34.62c-4.98-13.34-7.46-27.95-7.46-43.83c0-15.88,2.49-30.49,7.46-43.83
		c4.97-13.34,12.12-24.88,21.44-34.62c9.31-9.74,20.8-17.36,34.46-22.87C866.47,65.57,881.98,62.81,899.34,62.81z"/>
</g>
</svg>
