<?xml version="1.0" encoding="utf-8"?>
<!-- Generator: Adobe Illustrator 26.4.1, SVG Export Plug-In . SVG Version: 6.00 Build 0)  -->
<svg version="1.1" id="Layer_1" xmlns="http://www.w3.org/2000/svg" xmlns:xlink="http://www.w3.org/1999/xlink" x="0px" y="0px"
	 viewBox="0 0 955.24 531.63" style="enable-background:new 0 0 955.24 531.63;" xml:space="preserve">
<style type="text/css">
	.st0{fill:#800000;}
	.st1{fill:none;stroke:#FFFFFF;stroke-width:20;stroke-linecap:square;stroke-linejoin:round;stroke-miterlimit:10;}
	.st2{fill:none;stroke:#800000;stroke-width:20;stroke-linecap:square;stroke-linejoin:round;stroke-miterlimit:10;}
	.st3{fill:none;stroke:#FFFFFF;stroke-width:21;stroke-linecap:square;stroke-linejoin:round;stroke-miterlimit:10;}
</style>
<g>
	<circle class="st0" cx="184.01" cy="184.01" r="173.51"/>
	<g>
		<g>
			<polyline class="st1" points="22.12,240.63 30.58,249.49 33.23,251.84 35.48,253.53 37.47,254.74 39.3,255.58 41.01,256.11 
				42.64,256.37 44.23,256.38 45.8,256.16 47.38,255.7 49,254.97 50.69,253.95 52.49,252.58 54.43,250.8 56.56,248.51 59,245.53 
				61.99,241.48 67.63,233.34 71.34,228.23 73.91,225.07 76.05,222.81 77.92,221.16 79.6,219.98 81.15,219.18 82.59,218.69 
				83.97,218.47 85.3,218.5 86.62,218.76 87.96,219.27 89.33,220.05 90.77,221.15 92.29,222.62 93.93,224.54 95.7,226.99 
				97.65,230.1 99.84,234.07 102.41,239.25 105.82,246.68 113.19,262.86 115.66,267.63 117.69,271.05 119.43,273.55 120.97,275.36 
				122.34,276.62 123.59,277.45 124.72,277.94 125.79,278.15 126.82,278.1 127.83,277.82 128.86,277.29 129.92,276.46 
				131.05,275.28 132.25,273.67 133.54,271.53 134.92,268.76 136.4,265.23 138,260.79 139.73,255.28 141.61,248.48 143.66,240.13 
				145.93,229.85 148.5,217.08 151.55,200.7 155.69,177.02 163.65,131.34 166.69,115.43 169.19,103.55 171.36,94.34 173.29,87.16 
				175.02,81.57 176.58,77.29 178,74.09 179.28,71.74 180.44,70.08 181.49,68.98 182.44,68.3 183.32,67.96 184.16,67.88 
				184.99,68.04 185.83,68.45 186.74,69.16 187.71,70.24 188.78,71.79 189.95,73.92 191.23,76.78 192.65,80.52 194.2,85.34 
				195.92,91.45 197.84,99.16 199.99,108.85 202.46,121.14 205.45,137.23 209.63,161.21 217.2,204.69 220.38,221.44 223.03,234.17 
				225.35,244.25 227.45,252.32 229.37,258.79 231.13,263.93 232.76,267.98 234.27,271.12 235.67,273.51 236.97,275.27 
				238.17,276.53 239.3,277.37 240.38,277.89 241.41,278.13 242.43,278.13 243.48,277.88 244.57,277.38 245.74,276.57 
				247.02,275.39 248.43,273.76 250.01,271.56 251.8,268.63 253.9,264.73 256.5,259.38 260.44,250.64 265.76,238.94 268.54,233.4 
				270.85,229.31 272.88,226.18 274.72,223.77 276.4,221.94 277.97,220.58 279.44,219.6 280.83,218.95 282.18,218.58 283.51,218.45 
				284.85,218.57 286.22,218.92 287.65,219.54 289.18,220.47 290.83,221.76 292.66,223.49 294.73,225.79 297.18,228.88 
				300.4,233.34 309.1,245.63 311.71,248.79 313.96,251.15 315.97,252.94 317.82,254.27 319.56,255.24 321.22,255.89 322.82,256.27 
				324.39,256.41 325.98,256.3 327.6,255.96 329.28,255.35 331.07,254.46 333.01,253.21 335.16,251.54 337.65,249.29 340.8,246.11 
				345.9,240.63 			"/>
		</g>
	</g>
	<circle class="st2" cx="184.01" cy="184.01" r="173.51"/>
	<circle class="st3" cx="184.01" cy="184.01" r="173.51"/>
</g>
<g>
	<path class="st0" d="M66.45,422.77c0,2.74-0.59,5.19-1.77,7.36c-1.18,2.17-2.77,4.01-4.78,5.54c-2.01,1.53-4.36,2.71-7.07,3.54
		c-2.71,0.83-5.62,1.24-8.74,1.24c-3.06,0-6.2-0.32-9.41-0.96c-3.22-0.64-6.16-1.59-8.84-2.87l1.72-6.97
		c2.36,1.08,4.95,1.97,7.79,2.67c2.83,0.7,5.68,1.05,8.55,1.05c4.14,0,7.48-0.87,10.03-2.63c2.55-1.75,3.82-4.28,3.82-7.6
		c0-1.85-0.37-3.42-1.1-4.73c-0.73-1.3-1.74-2.48-3.01-3.54c-1.27-1.05-2.75-1.99-4.44-2.82c-1.69-0.83-3.49-1.69-5.4-2.58
		c-2.17-1.02-4.25-2.09-6.26-3.2c-2.01-1.11-3.77-2.39-5.3-3.82c-1.53-1.43-2.76-3.06-3.68-4.87c-0.92-1.82-1.39-3.93-1.39-6.35
		c0-2.74,0.49-5.16,1.48-7.26c0.99-2.1,2.37-3.85,4.16-5.25c1.78-1.4,3.92-2.45,6.4-3.15c2.48-0.7,5.22-1.05,8.22-1.05
		c3.06,0,6.03,0.35,8.93,1.05c2.9,0.7,5.43,1.62,7.59,2.77l-1.62,6.97c-2.04-1.08-4.36-1.97-6.97-2.67
		c-2.61-0.7-5.25-1.05-7.93-1.05c-7.71,0-11.56,2.99-11.56,8.98c0,1.34,0.19,2.5,0.57,3.49c0.38,0.99,1,1.91,1.86,2.77
		c0.86,0.86,2.01,1.69,3.44,2.48c1.43,0.8,3.17,1.7,5.21,2.72c2.04,1.02,4.2,2.12,6.5,3.3c2.29,1.18,4.39,2.58,6.31,4.2
		c1.91,1.62,3.5,3.52,4.78,5.68C65.81,417.39,66.45,419.91,66.45,422.77z"/>
	<path class="st0" d="M105.33,440.45c-4.97,0-9.4-0.89-13.28-2.67c-3.89-1.78-7.13-4.17-9.75-7.17c-2.61-2.99-4.6-6.5-5.97-10.51
		c-1.37-4.01-2.05-8.22-2.05-12.61s0.68-8.6,2.05-12.61c1.37-4.01,3.36-7.51,5.97-10.51c2.61-2.99,5.86-5.38,9.75-7.17
		c3.88-1.78,8.31-2.68,13.28-2.68c4.97,0,9.39,0.89,13.28,2.68c3.88,1.78,7.13,4.17,9.75,7.17c2.61,2.99,4.6,6.5,5.97,10.51
		c1.37,4.01,2.05,8.22,2.05,12.61s-0.69,8.6-2.05,12.61c-1.37,4.01-3.36,7.52-5.97,10.51c-2.61,3-5.86,5.38-9.75,7.17
		C114.72,439.55,110.3,440.45,105.33,440.45z M105.33,433.38c3.63,0,6.85-0.67,9.65-2.01c2.8-1.34,5.13-3.18,6.97-5.54
		c1.85-2.36,3.25-5.11,4.2-8.26c0.96-3.15,1.43-6.51,1.43-10.08c0-3.57-0.48-6.93-1.43-10.08c-0.96-3.15-2.36-5.89-4.2-8.22
		c-1.85-2.32-4.17-4.17-6.97-5.54c-2.8-1.37-6.02-2.05-9.65-2.05c-3.63,0-6.85,0.68-9.65,2.05c-2.8,1.37-5.13,3.22-6.97,5.54
		c-1.85,2.33-3.25,5.06-4.2,8.22c-0.96,3.15-1.43,6.51-1.43,10.08c0,3.57,0.48,6.93,1.43,10.08c0.96,3.15,2.36,5.91,4.2,8.26
		c1.85,2.36,4.17,4.2,6.97,5.54C98.48,432.71,101.7,433.38,105.33,433.38z"/>
	<path class="st0" d="M189.02,375.67h8.79v41.08c0,3.31-0.54,6.42-1.62,9.31c-1.08,2.9-2.67,5.42-4.78,7.55
		c-2.1,2.13-4.7,3.81-7.79,5.02c-3.09,1.21-6.67,1.82-10.75,1.82c-4.08,0-7.66-0.61-10.75-1.82c-3.09-1.21-5.68-2.88-7.79-5.02
		c-2.1-2.13-3.69-4.65-4.78-7.55c-1.08-2.9-1.62-6-1.62-9.31v-41.08h8.79v41.46c0,4.78,1.35,8.66,4.06,11.66
		c2.71,2.99,6.74,4.49,12.08,4.49c5.35,0,9.38-1.5,12.09-4.49c2.71-2.99,4.06-6.88,4.06-11.66V375.67z"/>
	<path class="st0" d="M256.76,439.3l-35.64-49.97v49.97h-8.41v-63.63h8.41l35.64,49.97v-49.97h8.41v63.63H256.76z"/>
	<path class="st0" d="M280.45,375.67h17.67c5.48,0,10.45,0.8,14.9,2.39c4.46,1.59,8.28,3.81,11.46,6.64
		c3.18,2.83,5.64,6.2,7.36,10.08c1.72,3.89,2.58,8.12,2.58,12.71s-0.86,8.82-2.58,12.71c-1.72,3.89-4.17,7.25-7.36,10.08
		c-3.19,2.83-7.01,5.05-11.46,6.64c-4.46,1.59-9.43,2.39-14.9,2.39h-17.67V375.67z M298.12,432.23c3.82,0,7.4-0.56,10.75-1.67
		c3.34-1.11,6.26-2.72,8.74-4.82s4.44-4.68,5.88-7.74c1.43-3.06,2.15-6.56,2.15-10.51c0-3.88-0.72-7.37-2.15-10.46
		c-1.43-3.09-3.39-5.68-5.88-7.79c-2.48-2.1-5.4-3.71-8.74-4.82c-3.34-1.11-6.93-1.67-10.75-1.67h-8.88v49.49H298.12z"/>
	<path class="st0" d="M375.51,439.3h-8.79v-63.63h8.79V439.3z"/>
	<path class="st0" d="M435.32,439.3l-35.64-49.97v49.97h-8.41v-63.63h8.41l35.64,49.97v-49.97h8.41v63.63H435.32z"/>
	<path class="st0" d="M499.71,375.67v7.17h-18.73v56.46h-8.79v-56.46h-18.73v-7.17H499.71z"/>
	<path class="st0" d="M509.45,375.67h35.44v7.17h-26.66v20.35h25.51v7.17h-25.51v21.78h26.94v7.17h-35.73V375.67z"/>
	<path class="st0" d="M566.97,439.3h-8.79v-63.63h16.53c3.44,0,6.64,0.38,9.6,1.15c2.96,0.76,5.56,1.9,7.79,3.39
		c2.23,1.5,3.98,3.38,5.25,5.64c1.27,2.26,1.91,4.86,1.91,7.79c0,4.39-1.42,8.22-4.25,11.46c-2.83,3.25-6.8,5.61-11.89,7.07
		l22.45,27.13h-10.8l-20.73-25.6c-0.32,0-0.8,0.02-1.43,0.05c-0.64,0.03-1.31,0.05-2.01,0.05c-0.7,0-1.39,0-2.05,0s-1.19,0-1.58,0
		V439.3z M590.47,393.82c0-1.97-0.43-3.68-1.29-5.11c-0.86-1.43-2.02-2.58-3.49-3.44c-1.47-0.86-3.15-1.5-5.06-1.91
		c-1.91-0.41-3.92-0.62-6.02-0.62h-7.64v23.98h4.39c2.68,0,5.17-0.25,7.5-0.76c2.32-0.51,4.35-1.29,6.07-2.34s3.07-2.39,4.06-4.01
		C589.98,397.98,590.47,396.05,590.47,393.82z"/>
	<path class="st0" d="M669,439.3h-8.98l-5.83-15.38h-29.71l-5.73,15.38h-8.98l25.32-63.63h8.6L669,439.3z M627.16,416.85h24.46
		l-12.23-33.15L627.16,416.85z"/>
	<path class="st0" d="M705.78,374.53c2.87,0,5.86,0.27,8.98,0.81c3.12,0.54,5.73,1.26,7.83,2.15l-1.43,6.78
		c-2.17-0.76-4.49-1.38-6.97-1.86c-2.48-0.48-4.94-0.72-7.36-0.72c-7.96,0-14.17,2.23-18.63,6.69c-4.46,4.46-6.69,10.83-6.69,19.11
		c0,8.28,2.23,14.65,6.69,19.11c4.46,4.46,10.67,6.69,18.63,6.69c2.42,0,4.87-0.24,7.36-0.72c2.48-0.48,4.81-1.1,6.97-1.86
		l1.43,6.78c-2.1,0.89-4.71,1.61-7.83,2.15c-3.12,0.54-6.12,0.81-8.98,0.81c-5.22,0-9.89-0.83-14-2.48
		c-4.11-1.66-7.56-3.95-10.37-6.88c-2.8-2.93-4.95-6.4-6.45-10.41c-1.5-4.01-2.25-8.41-2.25-13.18c0-4.78,0.75-9.17,2.25-13.18
		c1.5-4.01,3.65-7.48,6.45-10.41c2.8-2.93,6.26-5.22,10.37-6.88C695.9,375.35,700.56,374.53,705.78,374.53z"/>
	<path class="st0" d="M775.24,375.67v7.17h-18.73v56.46h-8.79v-56.46H729v-7.17H775.24z"/>
	<path class="st0" d="M794.25,439.3h-8.79v-63.63h8.79V439.3z"/>
	<path class="st0" d="M837.72,440.45c-4.97,0-9.4-0.89-13.28-2.67c-3.89-1.78-7.13-4.17-9.75-7.17c-2.61-2.99-4.6-6.5-5.97-10.51
		c-1.37-4.01-2.05-8.22-2.05-12.61s0.68-8.6,2.05-12.61c1.37-4.01,3.36-7.51,5.97-10.51c2.61-2.99,5.86-5.38,9.75-7.17
		c3.88-1.78,8.31-2.68,13.28-2.68c4.97,0,9.39,0.89,13.28,2.68c3.88,1.78,7.13,4.17,9.75,7.17c2.61,2.99,4.6,6.5,5.97,10.51
		c1.37,4.01,2.05,8.22,2.05,12.61s-0.69,8.6-2.05,12.61c-1.37,4.01-3.36,7.52-5.97,10.51c-2.61,3-5.86,5.38-9.75,7.17
		C847.12,439.55,842.69,440.45,837.72,440.45z M837.72,433.38c3.63,0,6.85-0.67,9.65-2.01c2.8-1.34,5.13-3.18,6.97-5.54
		c1.85-2.36,3.25-5.11,4.2-8.26c0.96-3.15,1.43-6.51,1.43-10.08c0-3.57-0.48-6.93-1.43-10.08c-0.96-3.15-2.36-5.89-4.2-8.22
		c-1.85-2.32-4.17-4.17-6.97-5.54c-2.8-1.37-6.02-2.05-9.65-2.05c-3.63,0-6.85,0.68-9.65,2.05c-2.8,1.37-5.13,3.22-6.97,5.54
		c-1.85,2.33-3.25,5.06-4.2,8.22c-0.96,3.15-1.43,6.51-1.43,10.08c0,3.57,0.48,6.93,1.43,10.08c0.96,3.15,2.36,5.91,4.2,8.26
		c1.85,2.36,4.17,4.2,6.97,5.54C830.87,432.71,834.09,433.38,837.72,433.38z"/>
	<path class="st0" d="M924.76,439.3l-35.64-49.97v49.97h-8.41v-63.63h8.41l35.64,49.97v-49.97h8.41v63.63H924.76z"/>
	<path class="st0" d="M84.02,530.48h-8.98l-5.83-15.38H39.5l-5.73,15.38h-8.98l25.32-63.63h8.6L84.02,530.48z M42.18,508.03h24.46
		l-12.23-33.15L42.18,508.03z"/>
	<path class="st0" d="M138.39,530.48l-35.64-49.97v49.97h-8.41v-63.63h8.41l35.64,49.97v-49.97h8.41v63.63H138.39z"/>
	<path class="st0" d="M162.08,466.85h17.67c5.48,0,10.45,0.8,14.9,2.39c4.46,1.59,8.28,3.81,11.46,6.64
		c3.18,2.83,5.64,6.2,7.36,10.08c1.72,3.89,2.58,8.12,2.58,12.71s-0.86,8.82-2.58,12.71c-1.72,3.89-4.17,7.25-7.36,10.08
		c-3.19,2.83-7.01,5.05-11.46,6.64c-4.46,1.59-9.43,2.39-14.9,2.39h-17.67V466.85z M179.75,523.41c3.82,0,7.4-0.56,10.75-1.67
		c3.34-1.11,6.26-2.72,8.74-4.82s4.44-4.68,5.88-7.74c1.43-3.06,2.15-6.56,2.15-10.51c0-3.88-0.72-7.37-2.15-10.46
		c-1.43-3.09-3.39-5.68-5.88-7.79c-2.48-2.1-5.4-3.71-8.74-4.82c-3.34-1.11-6.93-1.67-10.75-1.67h-8.88v49.49H179.75z"/>
	<path class="st0" d="M277.39,465.71c2.87,0,5.86,0.27,8.98,0.81c3.12,0.54,5.73,1.26,7.83,2.15l-1.43,6.78
		c-2.17-0.76-4.49-1.38-6.97-1.86c-2.48-0.48-4.94-0.72-7.36-0.72c-7.96,0-14.17,2.23-18.63,6.69c-4.46,4.46-6.69,10.83-6.69,19.11
		c0,8.28,2.23,14.65,6.69,19.11c4.46,4.46,10.67,6.69,18.63,6.69c2.42,0,4.87-0.24,7.36-0.72c2.48-0.48,4.81-1.1,6.97-1.86
		l1.43,6.78c-2.1,0.89-4.71,1.61-7.83,2.15c-3.12,0.54-6.12,0.81-8.98,0.81c-5.22,0-9.89-0.83-14-2.48
		c-4.11-1.66-7.56-3.95-10.37-6.88c-2.8-2.93-4.95-6.4-6.45-10.41c-1.5-4.01-2.25-8.41-2.25-13.18c0-4.78,0.75-9.17,2.25-13.18
		c1.5-4.01,3.65-7.48,6.45-10.41c2.8-2.93,6.26-5.22,10.37-6.88C267.51,466.54,272.17,465.71,277.39,465.71z"/>
	<path class="st0" d="M332.23,531.63c-4.97,0-9.4-0.89-13.28-2.67c-3.89-1.78-7.13-4.17-9.75-7.17c-2.61-2.99-4.6-6.5-5.97-10.51
		c-1.37-4.01-2.05-8.22-2.05-12.61s0.68-8.6,2.05-12.61c1.37-4.01,3.36-7.51,5.97-10.51c2.61-2.99,5.86-5.38,9.75-7.17
		c3.88-1.78,8.31-2.68,13.28-2.68c4.97,0,9.39,0.89,13.28,2.68c3.88,1.78,7.13,4.17,9.75,7.17c2.61,2.99,4.6,6.5,5.97,10.51
		c1.37,4.01,2.05,8.22,2.05,12.61s-0.69,8.6-2.05,12.61c-1.37,4.01-3.36,7.52-5.97,10.51c-2.61,3-5.86,5.38-9.75,7.17
		C341.63,530.74,337.2,531.63,332.23,531.63z M332.23,524.56c3.63,0,6.85-0.67,9.65-2.01c2.8-1.34,5.13-3.18,6.97-5.54
		c1.85-2.36,3.25-5.11,4.2-8.26c0.96-3.15,1.43-6.51,1.43-10.08c0-3.57-0.48-6.93-1.43-10.08c-0.96-3.15-2.36-5.89-4.2-8.22
		c-1.85-2.32-4.17-4.17-6.97-5.54c-2.8-1.37-6.02-2.05-9.65-2.05c-3.63,0-6.85,0.68-9.65,2.05c-2.8,1.37-5.13,3.22-6.97,5.54
		c-1.85,2.33-3.25,5.06-4.2,8.22c-0.96,3.15-1.43,6.51-1.43,10.08c0,3.57,0.48,6.93,1.43,10.08c0.96,3.15,2.36,5.91,4.2,8.26
		c1.85,2.36,4.17,4.2,6.97,5.54C325.38,523.89,328.6,524.56,332.23,524.56z"/>
	<path class="st0" d="M429.77,466.85h7.93l4.59,63.63h-8.41l-3.06-49.58l-18.34,38.12h-8.98l-18.34-38.12l-3.06,49.58h-8.41
		l4.59-63.63h7.93l21.78,45L429.77,466.85z"/>
	<path class="st0" d="M495.79,485.48c0,3.06-0.67,5.81-2.01,8.26c-1.34,2.45-3.2,4.54-5.59,6.26s-5.21,3.04-8.46,3.96
		c-3.25,0.92-6.75,1.38-10.51,1.38h-4.39v25.13h-8.79v-63.63h15.38c3.44,0,6.64,0.38,9.6,1.15c2.96,0.76,5.54,1.93,7.74,3.49
		c2.2,1.56,3.92,3.5,5.16,5.83C495.17,479.64,495.79,482.36,495.79,485.48z M487,485.39c0-2.1-0.42-3.87-1.24-5.3
		c-0.83-1.43-1.96-2.61-3.39-3.54c-1.43-0.92-3.12-1.59-5.06-2.01c-1.94-0.41-4-0.62-6.16-0.62h-6.31v24.36h4.68
		c2.55,0,4.89-0.29,7.02-0.86c2.13-0.57,3.98-1.42,5.54-2.53c1.56-1.11,2.77-2.47,3.63-4.06C486.57,489.24,487,487.43,487,485.39z"
		/>
	<path class="st0" d="M545.28,466.85h8.79v41.08c0,3.31-0.54,6.42-1.62,9.31c-1.08,2.9-2.67,5.42-4.78,7.55
		c-2.1,2.13-4.7,3.81-7.79,5.02c-3.09,1.21-6.67,1.82-10.75,1.82c-4.08,0-7.66-0.61-10.75-1.82c-3.09-1.21-5.68-2.88-7.79-5.02
		c-2.1-2.13-3.69-4.65-4.78-7.55c-1.08-2.9-1.62-6-1.62-9.31v-41.08h8.79v41.46c0,4.78,1.35,8.66,4.06,11.66
		c2.71,2.99,6.74,4.49,12.08,4.49c5.35,0,9.38-1.5,12.09-4.49c2.71-2.99,4.06-6.88,4.06-11.66V466.85z"/>
	<path class="st0" d="M609.67,466.85v7.17h-18.73v56.46h-8.79v-56.46h-18.73v-7.17H609.67z"/>
	<path class="st0" d="M628.68,530.48h-8.79v-63.63h8.79V530.48z"/>
	<path class="st0" d="M688.49,530.48l-35.64-49.97v49.97h-8.41v-63.63h8.41l35.64,49.97v-49.97h8.41v63.63H688.49z"/>
	<path class="st0" d="M742.76,465.71c3.57,0,6.97,0.3,10.22,0.91c3.25,0.61,6.18,1.54,8.79,2.82l-1.43,6.97
		c-2.74-1.08-5.59-1.94-8.55-2.58c-2.96-0.64-5.94-0.96-8.93-0.96c-7.9,0-14.11,2.3-18.63,6.91c-4.52,4.61-6.78,11.14-6.78,19.6
		c0,8.14,2.13,14.38,6.4,18.74c4.27,4.36,10.67,6.53,19.2,6.53c2.04,0,4.09-0.14,6.16-0.43c2.07-0.29,3.84-0.65,5.3-1.1v-20.73h8.03
		v25.65c-2.42,1.03-5.51,1.89-9.27,2.57c-3.76,0.68-7.52,1.02-11.27,1.02c-5.22,0-9.9-0.78-14.04-2.34
		c-4.14-1.56-7.64-3.76-10.51-6.59c-2.87-2.83-5.05-6.23-6.54-10.17c-1.5-3.95-2.25-8.31-2.25-13.09c0-4.97,0.78-9.52,2.34-13.66
		c1.56-4.14,3.8-7.69,6.74-10.65c2.93-2.96,6.5-5.27,10.7-6.93C732.63,466.54,737.41,465.71,742.76,465.71z"/>
	<path class="st0" d="M806.19,466.85v56.46h26.56v7.17H797.4v-63.63H806.19z"/>
	<path class="st0" d="M898.2,530.48h-8.98l-5.83-15.38h-29.71l-5.73,15.38h-8.98l25.32-63.63h8.6L898.2,530.48z M856.35,508.03
		h24.46l-12.23-33.15L856.35,508.03z"/>
	<path class="st0" d="M951.22,512.68c0,2.62-0.59,5.03-1.77,7.23s-2.86,4.08-5.03,5.65c-2.17,1.56-4.77,2.78-7.8,3.64
		c-3.03,0.86-6.4,1.29-10.1,1.29h-18v-63.63h19.73c3.06,0,5.87,0.37,8.43,1.1c2.55,0.73,4.74,1.78,6.56,3.15
		c1.82,1.37,3.22,3,4.21,4.91c0.99,1.91,1.49,4,1.49,6.29c0,3.69-1.23,6.79-3.69,9.3s-5.6,4.4-9.43,5.67
		c4.72,0.89,8.47,2.63,11.25,5.22C949.83,505.08,951.22,508.47,951.22,512.68z M925.04,494.18c2.17,0,4.19-0.25,6.07-0.76
		c1.88-0.5,3.5-1.23,4.87-2.18c1.37-0.95,2.44-2.08,3.2-3.41c0.76-1.33,1.15-2.84,1.15-4.54c0-3.15-1.19-5.52-3.58-7.1
		c-2.39-1.58-5.49-2.37-9.32-2.37h-10.51v20.35H925.04z M942.81,512.38c0-1.9-0.45-3.57-1.34-5c-0.9-1.43-2.11-2.6-3.64-3.52
		c-1.54-0.92-3.32-1.6-5.37-2.04c-2.04-0.44-4.22-0.67-6.52-0.67h-9.01v22.36h10.16c4.79,0,8.61-0.93,11.46-2.81
		C941.39,518.83,942.81,516.06,942.81,512.38z"/>
</g>
<g>
	<path class="st0" d="M504.89,223.2c0,9.11-1.96,17.26-5.88,24.46c-3.92,7.2-9.21,13.34-15.88,18.42c-6.67,5.08-14.51,9-23.5,11.75
		c-9,2.75-18.69,4.13-29.06,4.13c-10.16,0-20.59-1.06-31.28-3.18c-10.69-2.11-20.49-5.29-29.38-9.53l5.72-23.19
		c7.83,3.6,16.46,6.57,25.88,8.89c9.42,2.33,18.9,3.49,28.43,3.49c13.76,0,24.88-2.91,33.35-8.73c8.47-5.82,12.7-14.24,12.7-25.25
		c0-6.14-1.22-11.38-3.65-15.72c-2.44-4.34-5.77-8.26-10-11.75c-4.24-3.49-9.16-6.61-14.77-9.37c-5.61-2.75-11.59-5.61-17.94-8.58
		c-7.2-3.38-14.13-6.93-20.8-10.64c-6.67-3.7-12.55-7.94-17.63-12.7c-5.08-4.76-9.16-10.16-12.23-16.2
		c-3.07-6.03-4.61-13.07-4.61-21.12c0-9.1,1.64-17.15,4.92-24.14c3.28-6.99,7.88-12.81,13.82-17.47
		c5.92-4.65,13.02-8.15,21.28-10.48c8.26-2.33,17.36-3.49,27.31-3.49c10.16,0,20.06,1.17,29.7,3.49c9.63,2.33,18.05,5.4,25.25,9.21
		l-5.4,23.19c-6.78-3.6-14.51-6.56-23.18-8.89c-8.68-2.33-17.47-3.49-26.36-3.49c-25.62,0-38.43,9.96-38.43,29.85
		c0,4.45,0.64,8.31,1.91,11.59c1.27,3.29,3.33,6.35,6.19,9.21s6.67,5.61,11.43,8.26c4.76,2.65,10.53,5.67,17.31,9.05
		c6.77,3.39,13.97,7.04,21.6,10.96c7.62,3.92,14.61,8.58,20.96,13.97s11.64,11.7,15.88,18.9
		C502.77,205.31,504.89,213.67,504.89,223.2z"/>
	<path class="st0" d="M572.86,278.15h-29.22V66.62h29.22V278.15z"/>
	<path class="st0" d="M623.67,278.15V125.7h27.31v22.23c5.72-8.04,12.59-14.29,20.64-18.74c8.04-4.45,17.36-6.67,27.95-6.67
		c9.53,0,17.68,2.01,24.46,6.03c6.77,4.02,12.39,9.48,16.83,16.36c4.45,6.88,7.67,14.88,9.69,23.98c2.01,9.11,3.02,18.74,3.02,28.9
		v80.35h-28.58v-79.4c0-7.83-0.63-14.98-1.91-21.44c-1.27-6.46-3.29-12.01-6.04-16.67c-2.75-4.65-6.35-8.31-10.8-10.96
		c-4.45-2.64-9.85-3.97-16.2-3.97c-8.47,0-15.93,2.22-22.39,6.67c-6.46,4.45-11.59,9.11-15.4,13.97v111.8H623.67z"/>
	<path class="st0" d="M899.34,62.81c9.53,0,19.48,0.9,29.85,2.7c10.37,1.8,19.06,4.18,26.04,7.15l-4.76,22.55
		c-7.2-2.54-14.93-4.61-23.18-6.19c-8.26-1.59-16.41-2.38-24.46-2.38c-26.47,0-47.11,7.41-61.93,22.23
		c-14.82,14.82-22.23,36-22.23,63.52c0,27.53,7.41,48.7,22.23,63.52c14.82,14.82,35.46,22.23,61.93,22.23
		c8.04,0,16.2-0.79,24.46-2.38c8.26-1.59,15.98-3.65,23.18-6.19l4.76,22.55c-6.99,2.97-15.67,5.35-26.04,7.15
		c-10.38,1.8-20.33,2.7-29.85,2.7c-17.36,0-32.87-2.75-46.53-8.26c-13.66-5.5-25.15-13.13-34.46-22.87
		c-9.32-9.74-16.47-21.28-21.44-34.62c-4.98-13.34-7.46-27.95-7.46-43.83c0-15.88,2.49-30.49,7.46-43.83
		c4.97-13.34,12.12-24.88,21.44-34.62c9.31-9.74,20.8-17.36,34.46-22.87C866.47,65.57,881.98,62.81,899.34,62.81z"/>
</g>
</svg>
