<?xml version="1.0" encoding="utf-8"?>
<!-- Generator: Adobe Illustrator 26.4.1, SVG Export Plug-In . SVG Version: 6.00 Build 0)  -->
<svg version="1.1" id="Layer_1" xmlns="http://www.w3.org/2000/svg" xmlns:xlink="http://www.w3.org/1999/xlink" x="0px" y="0px"
	 viewBox="0 0 998.46 574.84" style="enable-background:new 0 0 998.46 574.84;" xml:space="preserve">
<style type="text/css">
	.st0{fill:#800000;}
	.st1{fill:#FFFFFF;}
	.st2{fill:none;stroke:#800000;stroke-width:20;stroke-linecap:square;stroke-linejoin:round;stroke-miterlimit:10;}
	.st3{fill:none;stroke:#FFFFFF;stroke-width:20;stroke-linecap:square;stroke-linejoin:round;stroke-miterlimit:10;}
	.st4{fill:none;stroke:#800000;stroke-width:21;stroke-linecap:square;stroke-linejoin:round;stroke-miterlimit:10;}
</style>
<rect class="st0" width="998.46" height="574.84"/>
<g>
	<circle class="st1" cx="196.16" cy="196.66" r="173.51"/>
	<g>
		<g>
			<polyline class="st2" points="34.26,253.28 42.73,262.14 45.38,264.49 47.62,266.18 49.62,267.39 51.44,268.23 53.16,268.76 
				54.79,269.02 56.37,269.03 57.94,268.81 59.52,268.35 61.14,267.62 62.84,266.6 64.63,265.23 66.57,263.45 68.71,261.16 
				71.14,258.18 74.14,254.13 79.77,245.99 83.48,240.88 86.05,237.72 88.19,235.46 90.06,233.81 91.75,232.63 93.29,231.83 
				94.74,231.34 96.11,231.12 97.44,231.15 98.76,231.41 100.1,231.92 101.47,232.7 102.91,233.8 104.44,235.27 106.07,237.18 
				107.84,239.63 109.79,242.75 111.98,246.72 114.56,251.9 117.97,259.32 125.33,275.5 127.81,280.28 129.83,283.7 131.58,286.2 
				133.11,288 134.49,289.27 135.73,290.1 136.87,290.59 137.93,290.79 138.96,290.75 139.97,290.47 141,289.94 142.07,289.11 
				143.2,287.93 144.4,286.31 145.68,284.18 147.06,281.41 148.54,277.88 150.14,273.44 151.87,267.93 153.75,261.13 155.8,252.78 
				158.07,242.5 160.65,229.73 163.69,213.35 167.84,189.67 175.79,143.99 178.83,128.08 181.33,116.2 183.5,106.99 185.43,99.8 
				187.16,94.22 188.73,89.94 190.14,86.74 191.42,84.39 192.58,82.73 193.63,81.63 194.59,80.95 195.47,80.61 196.3,80.53 
				197.13,80.69 197.98,81.1 198.88,81.81 199.86,82.89 200.92,84.43 202.09,86.57 203.38,89.43 204.79,93.17 206.35,97.98 
				208.07,104.1 209.98,111.81 212.13,121.5 214.6,133.79 217.59,149.88 221.77,173.86 229.34,217.34 232.52,234.09 235.17,246.82 
				237.5,256.9 239.6,264.97 241.51,271.43 243.28,276.57 244.9,280.63 246.41,283.77 247.81,286.15 249.11,287.92 250.32,289.17 
				251.45,290.02 252.52,290.54 253.55,290.78 254.58,290.78 255.62,290.53 256.71,290.03 257.89,289.22 259.16,288.04 
				260.57,286.41 262.15,284.21 263.95,281.28 266.05,277.38 268.64,272.03 272.58,263.29 277.9,251.59 280.69,246.05 283,241.96 
				285.03,238.83 286.86,236.42 288.55,234.59 290.11,233.22 291.58,232.25 292.98,231.6 294.33,231.22 295.66,231.1 296.99,231.21 
				298.36,231.57 299.79,232.19 301.32,233.12 302.98,234.41 304.81,236.14 306.88,238.44 309.32,241.52 312.54,245.99 
				321.24,258.28 323.86,261.44 326.1,263.8 328.11,265.59 329.97,266.92 331.7,267.89 333.36,268.54 334.96,268.92 336.54,269.06 
				338.12,268.95 339.74,268.61 341.42,268 343.21,267.1 345.15,265.86 347.3,264.18 349.8,261.94 352.94,258.76 358.05,253.28 			
				"/>
		</g>
	</g>
	<circle class="st3" cx="196.16" cy="196.66" r="173.51"/>
	<circle class="st4" cx="196.16" cy="196.66" r="173.51"/>
</g>
<g>
	<path class="st1" d="M78.59,435.42c0,2.74-0.59,5.19-1.77,7.36c-1.18,2.17-2.77,4.01-4.78,5.54c-2.01,1.53-4.36,2.71-7.07,3.54
		c-2.71,0.83-5.62,1.24-8.74,1.24c-3.06,0-6.2-0.32-9.41-0.96c-3.22-0.64-6.16-1.59-8.84-2.87l1.72-6.97
		c2.36,1.08,4.95,1.97,7.79,2.67c2.83,0.7,5.68,1.05,8.55,1.05c4.14,0,7.48-0.87,10.03-2.63c2.55-1.75,3.82-4.28,3.82-7.6
		c0-1.85-0.37-3.42-1.1-4.73c-0.73-1.3-1.74-2.48-3.01-3.54c-1.27-1.05-2.75-1.99-4.44-2.82c-1.69-0.83-3.49-1.69-5.4-2.58
		c-2.17-1.02-4.25-2.09-6.26-3.2c-2.01-1.11-3.77-2.39-5.3-3.82c-1.53-1.43-2.76-3.06-3.68-4.87c-0.92-1.82-1.39-3.93-1.39-6.35
		c0-2.74,0.49-5.16,1.48-7.26c0.99-2.1,2.37-3.85,4.16-5.25c1.78-1.4,3.92-2.45,6.4-3.15c2.48-0.7,5.22-1.05,8.22-1.05
		c3.06,0,6.03,0.35,8.93,1.05c2.9,0.7,5.43,1.62,7.59,2.77l-1.62,6.97c-2.04-1.08-4.36-1.97-6.97-2.67
		c-2.61-0.7-5.25-1.05-7.93-1.05c-7.71,0-11.56,2.99-11.56,8.98c0,1.34,0.19,2.5,0.57,3.49c0.38,0.99,1,1.91,1.86,2.77
		c0.86,0.86,2.01,1.69,3.44,2.48c1.43,0.8,3.17,1.7,5.21,2.72c2.04,1.02,4.2,2.12,6.5,3.3c2.29,1.18,4.39,2.58,6.31,4.2
		c1.91,1.62,3.5,3.52,4.78,5.68C77.95,430.04,78.59,432.55,78.59,435.42z"/>
	<path class="st1" d="M117.47,453.1c-4.97,0-9.4-0.89-13.28-2.67c-3.89-1.78-7.13-4.17-9.75-7.17c-2.61-2.99-4.6-6.5-5.97-10.51
		c-1.37-4.01-2.05-8.22-2.05-12.61s0.68-8.6,2.05-12.61c1.37-4.01,3.36-7.51,5.97-10.51c2.61-2.99,5.86-5.38,9.75-7.17
		c3.88-1.78,8.31-2.68,13.28-2.68c4.97,0,9.39,0.89,13.28,2.68c3.88,1.78,7.13,4.17,9.75,7.17c2.61,2.99,4.6,6.5,5.97,10.51
		c1.37,4.01,2.05,8.22,2.05,12.61s-0.69,8.6-2.05,12.61c-1.37,4.01-3.36,7.52-5.97,10.51c-2.61,3-5.86,5.38-9.75,7.17
		C126.87,452.2,122.44,453.1,117.47,453.1z M117.47,446.02c3.63,0,6.85-0.67,9.65-2.01c2.8-1.34,5.13-3.18,6.97-5.54
		c1.85-2.36,3.25-5.11,4.2-8.26c0.96-3.15,1.43-6.51,1.43-10.08c0-3.57-0.48-6.93-1.43-10.08c-0.96-3.15-2.36-5.89-4.2-8.22
		c-1.85-2.32-4.17-4.17-6.97-5.54c-2.8-1.37-6.02-2.05-9.65-2.05c-3.63,0-6.85,0.68-9.65,2.05c-2.8,1.37-5.13,3.22-6.97,5.54
		c-1.85,2.33-3.25,5.06-4.2,8.22c-0.96,3.15-1.43,6.51-1.43,10.08c0,3.57,0.48,6.93,1.43,10.08c0.96,3.15,2.36,5.91,4.2,8.26
		c1.85,2.36,4.17,4.2,6.97,5.54C110.62,445.36,113.84,446.02,117.47,446.02z"/>
	<path class="st1" d="M201.16,388.32h8.79v41.08c0,3.31-0.54,6.42-1.62,9.31c-1.08,2.9-2.67,5.42-4.78,7.55
		c-2.1,2.13-4.7,3.81-7.79,5.02c-3.09,1.21-6.67,1.82-10.75,1.82c-4.08,0-7.66-0.61-10.75-1.82c-3.09-1.21-5.68-2.88-7.79-5.02
		c-2.1-2.13-3.69-4.65-4.78-7.55c-1.08-2.9-1.62-6-1.62-9.31v-41.08h8.79v41.46c0,4.78,1.35,8.66,4.06,11.66
		c2.71,2.99,6.74,4.49,12.08,4.49c5.35,0,9.38-1.5,12.09-4.49c2.71-2.99,4.06-6.88,4.06-11.66V388.32z"/>
	<path class="st1" d="M268.9,451.95l-35.64-49.97v49.97h-8.41v-63.63h8.41l35.64,49.97v-49.97h8.41v63.63H268.9z"/>
	<path class="st1" d="M292.59,388.32h17.67c5.48,0,10.45,0.8,14.9,2.39c4.46,1.59,8.28,3.81,11.46,6.64
		c3.18,2.83,5.64,6.2,7.36,10.08c1.72,3.89,2.58,8.12,2.58,12.71s-0.86,8.82-2.58,12.71c-1.72,3.89-4.17,7.25-7.36,10.08
		c-3.19,2.83-7.01,5.05-11.46,6.64c-4.46,1.59-9.43,2.39-14.9,2.39h-17.67V388.32z M310.27,444.88c3.82,0,7.4-0.56,10.75-1.67
		c3.34-1.11,6.26-2.72,8.74-4.82s4.44-4.68,5.88-7.74c1.43-3.06,2.15-6.56,2.15-10.51c0-3.88-0.72-7.37-2.15-10.46
		c-1.43-3.09-3.39-5.68-5.88-7.79c-2.48-2.1-5.4-3.71-8.74-4.82c-3.34-1.11-6.93-1.67-10.75-1.67h-8.88v49.49H310.27z"/>
	<path class="st1" d="M387.65,451.95h-8.79v-63.63h8.79V451.95z"/>
	<path class="st1" d="M447.46,451.95l-35.64-49.97v49.97h-8.41v-63.63h8.41l35.64,49.97v-49.97h8.41v63.63H447.46z"/>
	<path class="st1" d="M511.85,388.32v7.17h-18.73v56.46h-8.79v-56.46h-18.73v-7.17H511.85z"/>
	<path class="st1" d="M521.6,388.32h35.44v7.17h-26.66v20.35h25.51V423h-25.51v21.78h26.94v7.17H521.6V388.32z"/>
	<path class="st1" d="M579.11,451.95h-8.79v-63.63h16.53c3.44,0,6.64,0.38,9.6,1.15c2.96,0.76,5.56,1.9,7.79,3.39
		c2.23,1.5,3.98,3.38,5.25,5.64c1.27,2.26,1.91,4.86,1.91,7.79c0,4.39-1.42,8.22-4.25,11.46c-2.83,3.25-6.8,5.61-11.89,7.07
		l22.45,27.13h-10.8l-20.73-25.6c-0.32,0-0.8,0.02-1.43,0.05c-0.64,0.03-1.31,0.05-2.01,0.05c-0.7,0-1.39,0-2.05,0s-1.19,0-1.58,0
		V451.95z M602.61,406.47c0-1.97-0.43-3.68-1.29-5.11c-0.86-1.43-2.02-2.58-3.49-3.44c-1.47-0.86-3.15-1.5-5.06-1.91
		c-1.91-0.41-3.92-0.62-6.02-0.62h-7.64v23.98h4.39c2.68,0,5.17-0.25,7.5-0.76c2.32-0.51,4.35-1.29,6.07-2.34s3.07-2.39,4.06-4.01
		C602.12,410.63,602.61,408.7,602.61,406.47z"/>
	<path class="st1" d="M681.15,451.95h-8.98l-5.83-15.38h-29.71l-5.73,15.38h-8.98l25.32-63.63h8.6L681.15,451.95z M639.3,429.5
		h24.46l-12.23-33.15L639.3,429.5z"/>
	<path class="st1" d="M717.93,387.17c2.87,0,5.86,0.27,8.98,0.81c3.12,0.54,5.73,1.26,7.83,2.15l-1.43,6.78
		c-2.17-0.76-4.49-1.38-6.97-1.86c-2.48-0.48-4.94-0.72-7.36-0.72c-7.96,0-14.17,2.23-18.63,6.69c-4.46,4.46-6.69,10.83-6.69,19.11
		c0,8.28,2.23,14.65,6.69,19.11c4.46,4.46,10.67,6.69,18.63,6.69c2.42,0,4.87-0.24,7.36-0.72c2.48-0.48,4.81-1.1,6.97-1.86
		l1.43,6.78c-2.1,0.89-4.71,1.61-7.83,2.15c-3.12,0.54-6.12,0.81-8.98,0.81c-5.22,0-9.89-0.83-14-2.48
		c-4.11-1.66-7.56-3.95-10.37-6.88c-2.8-2.93-4.95-6.4-6.45-10.41c-1.5-4.01-2.25-8.41-2.25-13.18c0-4.78,0.75-9.17,2.25-13.18
		c1.5-4.01,3.65-7.48,6.45-10.41c2.8-2.93,6.26-5.22,10.37-6.88C708.04,388,712.7,387.17,717.93,387.17z"/>
	<path class="st1" d="M787.38,388.32v7.17h-18.73v56.46h-8.79v-56.46h-18.73v-7.17H787.38z"/>
	<path class="st1" d="M806.4,451.95h-8.79v-63.63h8.79V451.95z"/>
	<path class="st1" d="M849.86,453.1c-4.97,0-9.4-0.89-13.28-2.67c-3.89-1.78-7.13-4.17-9.75-7.17c-2.61-2.99-4.6-6.5-5.97-10.51
		c-1.37-4.01-2.05-8.22-2.05-12.61s0.68-8.6,2.05-12.61c1.37-4.01,3.36-7.51,5.97-10.51c2.61-2.99,5.86-5.38,9.75-7.17
		c3.88-1.78,8.31-2.68,13.28-2.68c4.97,0,9.39,0.89,13.28,2.68c3.88,1.78,7.13,4.17,9.75,7.17c2.61,2.99,4.6,6.5,5.97,10.51
		c1.37,4.01,2.05,8.22,2.05,12.61s-0.69,8.6-2.05,12.61c-1.37,4.01-3.36,7.52-5.97,10.51c-2.61,3-5.86,5.38-9.75,7.17
		C859.26,452.2,854.83,453.1,849.86,453.1z M849.86,446.02c3.63,0,6.85-0.67,9.65-2.01c2.8-1.34,5.13-3.18,6.97-5.54
		c1.85-2.36,3.25-5.11,4.2-8.26c0.96-3.15,1.43-6.51,1.43-10.08c0-3.57-0.48-6.93-1.43-10.08c-0.96-3.15-2.36-5.89-4.2-8.22
		c-1.85-2.32-4.17-4.17-6.97-5.54c-2.8-1.37-6.02-2.05-9.65-2.05c-3.63,0-6.85,0.68-9.65,2.05c-2.8,1.37-5.13,3.22-6.97,5.54
		c-1.85,2.33-3.25,5.06-4.2,8.22c-0.96,3.15-1.43,6.51-1.43,10.08c0,3.57,0.48,6.93,1.43,10.08c0.96,3.15,2.36,5.91,4.2,8.26
		c1.85,2.36,4.17,4.2,6.97,5.54C843.02,445.36,846.23,446.02,849.86,446.02z"/>
	<path class="st1" d="M936.9,451.95l-35.64-49.97v49.97h-8.41v-63.63h8.41l35.64,49.97v-49.97h8.41v63.63H936.9z"/>
	<path class="st1" d="M96.17,543.13h-8.98l-5.83-15.38H51.65l-5.73,15.38h-8.98l25.32-63.63h8.6L96.17,543.13z M54.32,520.68h24.46
		l-12.23-33.15L54.32,520.68z"/>
	<path class="st1" d="M150.53,543.13l-35.64-49.97v49.97h-8.41V479.5h8.41l35.64,49.97V479.5h8.41v63.63H150.53z"/>
	<path class="st1" d="M174.22,479.5h17.67c5.48,0,10.45,0.8,14.9,2.39c4.46,1.59,8.28,3.81,11.46,6.64
		c3.18,2.83,5.64,6.2,7.36,10.08c1.72,3.89,2.58,8.12,2.58,12.71c0,4.59-0.86,8.82-2.58,12.71c-1.72,3.89-4.17,7.25-7.36,10.08
		c-3.19,2.83-7.01,5.05-11.46,6.64c-4.46,1.59-9.43,2.39-14.9,2.39h-17.67V479.5z M191.9,536.06c3.82,0,7.4-0.56,10.75-1.67
		c3.34-1.11,6.26-2.72,8.74-4.82s4.44-4.68,5.88-7.74c1.43-3.06,2.15-6.56,2.15-10.51c0-3.88-0.72-7.37-2.15-10.46
		c-1.43-3.09-3.39-5.68-5.88-7.79c-2.48-2.1-5.4-3.71-8.74-4.82c-3.34-1.11-6.93-1.67-10.75-1.67h-8.88v49.49H191.9z"/>
	<path class="st1" d="M289.54,478.36c2.87,0,5.86,0.27,8.98,0.81c3.12,0.54,5.73,1.26,7.83,2.15l-1.43,6.78
		c-2.17-0.76-4.49-1.38-6.97-1.86c-2.48-0.48-4.94-0.72-7.36-0.72c-7.96,0-14.17,2.23-18.63,6.69c-4.46,4.46-6.69,10.83-6.69,19.11
		c0,8.28,2.23,14.65,6.69,19.11c4.46,4.46,10.67,6.69,18.63,6.69c2.42,0,4.87-0.24,7.36-0.72c2.48-0.48,4.81-1.1,6.97-1.86
		l1.43,6.78c-2.1,0.89-4.71,1.61-7.83,2.15c-3.12,0.54-6.12,0.81-8.98,0.81c-5.22,0-9.89-0.83-14-2.48
		c-4.11-1.66-7.56-3.95-10.37-6.88c-2.8-2.93-4.95-6.4-6.45-10.41c-1.5-4.01-2.25-8.41-2.25-13.18c0-4.78,0.75-9.17,2.25-13.18
		c1.5-4.01,3.65-7.48,6.45-10.41c2.8-2.93,6.26-5.22,10.37-6.88C279.65,479.18,284.31,478.36,289.54,478.36z"/>
	<path class="st1" d="M344.37,544.28c-4.97,0-9.4-0.89-13.28-2.67c-3.89-1.78-7.13-4.17-9.75-7.17c-2.61-2.99-4.6-6.5-5.97-10.51
		c-1.37-4.01-2.05-8.22-2.05-12.61c0-4.39,0.68-8.6,2.05-12.61c1.37-4.01,3.36-7.51,5.97-10.51c2.61-2.99,5.86-5.38,9.75-7.17
		c3.88-1.78,8.31-2.68,13.28-2.68c4.97,0,9.39,0.89,13.28,2.68c3.88,1.78,7.13,4.17,9.75,7.17c2.61,2.99,4.6,6.5,5.97,10.51
		c1.37,4.01,2.05,8.22,2.05,12.61c0,4.39-0.69,8.6-2.05,12.61c-1.37,4.01-3.36,7.52-5.97,10.51c-2.61,3-5.86,5.38-9.75,7.17
		C353.77,543.38,349.34,544.28,344.37,544.28z M344.37,537.21c3.63,0,6.85-0.67,9.65-2.01c2.8-1.34,5.13-3.18,6.97-5.54
		c1.85-2.36,3.25-5.11,4.2-8.26c0.96-3.15,1.43-6.51,1.43-10.08c0-3.57-0.48-6.93-1.43-10.08c-0.96-3.15-2.36-5.89-4.2-8.22
		c-1.85-2.32-4.17-4.17-6.97-5.54c-2.8-1.37-6.02-2.05-9.65-2.05c-3.63,0-6.85,0.68-9.65,2.05c-2.8,1.37-5.13,3.22-6.97,5.54
		c-1.85,2.33-3.25,5.06-4.2,8.22c-0.96,3.15-1.43,6.51-1.43,10.08c0,3.57,0.48,6.93,1.43,10.08c0.96,3.15,2.36,5.91,4.2,8.26
		c1.85,2.36,4.17,4.2,6.97,5.54C337.53,536.54,340.74,537.21,344.37,537.21z"/>
	<path class="st1" d="M441.92,479.5h7.93l4.59,63.63h-8.41l-3.06-49.58l-18.34,38.12h-8.98l-18.34-38.12l-3.06,49.58h-8.41
		l4.59-63.63h7.93l21.78,45L441.92,479.5z"/>
	<path class="st1" d="M507.93,498.13c0,3.06-0.67,5.81-2.01,8.26c-1.34,2.45-3.2,4.54-5.59,6.26c-2.39,1.72-5.21,3.04-8.46,3.96
		c-3.25,0.92-6.75,1.38-10.51,1.38h-4.39v25.13h-8.79V479.5h15.38c3.44,0,6.64,0.38,9.6,1.15c2.96,0.76,5.54,1.93,7.74,3.49
		c2.2,1.56,3.92,3.5,5.16,5.83C507.31,492.29,507.93,495.01,507.93,498.13z M499.15,498.04c0-2.1-0.42-3.87-1.24-5.3
		c-0.83-1.43-1.96-2.61-3.39-3.54c-1.43-0.92-3.12-1.59-5.06-2.01c-1.94-0.41-4-0.62-6.16-0.62h-6.31v24.36h4.68
		c2.55,0,4.89-0.29,7.02-0.86c2.13-0.57,3.98-1.42,5.54-2.53c1.56-1.11,2.77-2.47,3.63-4.06
		C498.72,501.89,499.15,500.08,499.15,498.04z"/>
	<path class="st1" d="M557.42,479.5h8.79v41.08c0,3.31-0.54,6.42-1.62,9.31c-1.08,2.9-2.67,5.42-4.78,7.55
		c-2.1,2.13-4.7,3.81-7.79,5.02c-3.09,1.21-6.67,1.82-10.75,1.82c-4.08,0-7.66-0.61-10.75-1.82c-3.09-1.21-5.68-2.88-7.79-5.02
		c-2.1-2.13-3.69-4.65-4.78-7.55c-1.08-2.9-1.62-6-1.62-9.31V479.5h8.79v41.46c0,4.78,1.35,8.66,4.06,11.66
		c2.71,2.99,6.74,4.49,12.08,4.49c5.35,0,9.38-1.5,12.09-4.49c2.71-2.99,4.06-6.88,4.06-11.66V479.5z"/>
	<path class="st1" d="M621.82,479.5v7.17h-18.73v56.46h-8.79v-56.46h-18.73v-7.17H621.82z"/>
	<path class="st1" d="M640.83,543.13h-8.79V479.5h8.79V543.13z"/>
	<path class="st1" d="M700.63,543.13L665,493.16v49.97h-8.41V479.5H665l35.64,49.97V479.5h8.41v63.63H700.63z"/>
	<path class="st1" d="M754.9,478.36c3.57,0,6.97,0.3,10.22,0.91c3.25,0.61,6.18,1.54,8.79,2.82l-1.43,6.97
		c-2.74-1.08-5.59-1.94-8.55-2.58c-2.96-0.64-5.94-0.96-8.93-0.96c-7.9,0-14.11,2.3-18.63,6.91c-4.52,4.61-6.78,11.14-6.78,19.6
		c0,8.14,2.13,14.38,6.4,18.74c4.27,4.36,10.67,6.53,19.2,6.53c2.04,0,4.09-0.14,6.16-0.43c2.07-0.29,3.84-0.65,5.3-1.1v-20.73h8.03
		v25.65c-2.42,1.03-5.51,1.89-9.27,2.57c-3.76,0.68-7.52,1.02-11.27,1.02c-5.22,0-9.9-0.78-14.04-2.34
		c-4.14-1.56-7.64-3.76-10.51-6.59c-2.87-2.83-5.05-6.23-6.54-10.17c-1.5-3.95-2.25-8.31-2.25-13.09c0-4.97,0.78-9.52,2.34-13.66
		c1.56-4.14,3.8-7.69,6.74-10.65c2.93-2.96,6.5-5.27,10.7-6.93C744.77,479.18,749.55,478.36,754.9,478.36z"/>
	<path class="st1" d="M818.34,479.5v56.46h26.56v7.17h-35.35V479.5H818.34z"/>
	<path class="st1" d="M910.34,543.13h-8.98l-5.83-15.38h-29.71l-5.73,15.38h-8.98l25.32-63.63h8.6L910.34,543.13z M868.49,520.68
		h24.46l-12.23-33.15L868.49,520.68z"/>
	<path class="st1" d="M963.36,525.33c0,2.62-0.59,5.03-1.77,7.23s-2.86,4.08-5.03,5.65c-2.17,1.56-4.77,2.78-7.8,3.64
		c-3.03,0.86-6.4,1.29-10.1,1.29h-18V479.5h19.73c3.06,0,5.87,0.37,8.43,1.1c2.55,0.73,4.74,1.78,6.56,3.15
		c1.82,1.37,3.22,3,4.21,4.91c0.99,1.91,1.49,4,1.49,6.29c0,3.69-1.23,6.79-3.69,9.3s-5.6,4.4-9.43,5.67
		c4.72,0.89,8.47,2.63,11.25,5.22C961.97,517.72,963.36,521.12,963.36,525.33z M937.18,506.83c2.17,0,4.19-0.25,6.07-0.76
		c1.88-0.5,3.5-1.23,4.87-2.18c1.37-0.95,2.44-2.08,3.2-3.41c0.76-1.33,1.15-2.84,1.15-4.54c0-3.15-1.19-5.52-3.58-7.1
		c-2.39-1.58-5.49-2.37-9.32-2.37h-10.51v20.35H937.18z M954.95,525.03c0-1.9-0.45-3.57-1.34-5c-0.9-1.43-2.11-2.6-3.64-3.52
		c-1.54-0.92-3.32-1.6-5.37-2.04c-2.04-0.44-4.22-0.67-6.52-0.67h-9.01v22.36h10.16c4.79,0,8.61-0.93,11.46-2.81
		C953.53,531.48,954.95,528.7,954.95,525.03z"/>
</g>
<g>
	<path class="st1" d="M517.03,235.85c0,9.11-1.96,17.26-5.88,24.46c-3.92,7.2-9.21,13.34-15.88,18.42c-6.67,5.08-14.51,9-23.5,11.75
		c-9,2.75-18.69,4.13-29.06,4.13c-10.16,0-20.59-1.06-31.28-3.18c-10.69-2.11-20.49-5.29-29.38-9.53l5.72-23.19
		c7.83,3.6,16.46,6.57,25.88,8.89c9.42,2.33,18.9,3.49,28.43,3.49c13.76,0,24.88-2.91,33.35-8.73c8.47-5.82,12.7-14.24,12.7-25.25
		c0-6.14-1.22-11.38-3.65-15.72c-2.44-4.34-5.77-8.26-10-11.75c-4.24-3.49-9.16-6.61-14.77-9.37c-5.61-2.75-11.59-5.61-17.94-8.58
		c-7.2-3.38-14.13-6.93-20.8-10.64c-6.67-3.7-12.55-7.94-17.63-12.7c-5.08-4.76-9.16-10.16-12.23-16.2
		c-3.07-6.03-4.61-13.07-4.61-21.12c0-9.1,1.64-17.15,4.92-24.14c3.28-6.99,7.88-12.81,13.82-17.47
		c5.92-4.65,13.02-8.15,21.28-10.48c8.26-2.33,17.36-3.49,27.31-3.49c10.16,0,20.06,1.17,29.7,3.49c9.63,2.33,18.05,5.4,25.25,9.21
		l-5.4,23.19c-6.78-3.6-14.51-6.56-23.18-8.89c-8.68-2.33-17.47-3.49-26.36-3.49c-25.62,0-38.43,9.96-38.43,29.85
		c0,4.45,0.64,8.31,1.91,11.59c1.27,3.29,3.33,6.35,6.19,9.21s6.67,5.61,11.43,8.26c4.76,2.65,10.53,5.67,17.31,9.05
		c6.77,3.39,13.97,7.04,21.6,10.96c7.62,3.92,14.61,8.58,20.96,13.97s11.64,11.7,15.88,18.9
		C514.92,217.96,517.03,226.32,517.03,235.85z"/>
	<path class="st1" d="M585,290.79h-29.22V79.27H585V290.79z"/>
	<path class="st1" d="M635.81,290.79V138.35h27.31v22.23c5.72-8.04,12.59-14.29,20.64-18.74c8.04-4.45,17.36-6.67,27.95-6.67
		c9.53,0,17.68,2.01,24.46,6.03c6.77,4.02,12.39,9.48,16.83,16.36c4.45,6.88,7.67,14.88,9.69,23.98c2.01,9.11,3.02,18.74,3.02,28.9
		v80.35h-28.58v-79.4c0-7.83-0.63-14.98-1.91-21.44c-1.27-6.46-3.29-12.01-6.04-16.67c-2.75-4.65-6.35-8.31-10.8-10.96
		c-4.45-2.64-9.85-3.97-16.2-3.97c-8.47,0-15.93,2.22-22.39,6.67c-6.46,4.45-11.59,9.11-15.4,13.97v111.8H635.81z"/>
	<path class="st1" d="M911.49,75.46c9.53,0,19.48,0.9,29.85,2.7c10.37,1.8,19.06,4.18,26.04,7.15l-4.76,22.55
		c-7.2-2.54-14.93-4.61-23.18-6.19c-8.26-1.59-16.41-2.38-24.46-2.38c-26.47,0-47.11,7.41-61.93,22.23
		c-14.82,14.82-22.23,36-22.23,63.52c0,27.53,7.41,48.7,22.23,63.52c14.82,14.82,35.46,22.23,61.93,22.23
		c8.04,0,16.2-0.79,24.46-2.38c8.26-1.59,15.98-3.65,23.18-6.19l4.76,22.55c-6.99,2.97-15.67,5.35-26.04,7.15
		c-10.38,1.8-20.33,2.7-29.85,2.7c-17.36,0-32.87-2.75-46.53-8.26c-13.66-5.5-25.15-13.13-34.46-22.87
		c-9.32-9.74-16.47-21.28-21.44-34.62c-4.98-13.34-7.46-27.95-7.46-43.83c0-15.88,2.49-30.49,7.46-43.83
		c4.97-13.34,12.12-24.88,21.44-34.62c9.31-9.74,20.8-17.36,34.46-22.87C878.61,78.22,894.12,75.46,911.49,75.46z"/>
</g>
</svg>
